<?xml version="1.0" encoding="UTF-8" ?>
<!DOCTYPE svg PUBLIC "-//W3C//DTD SVG 1.1//EN" "http://www.w3.org/Graphics/SVG/1.1/DTD/svg11.dtd">
<svg width="25pt" height="25pt" viewBox="0 0 25 25" version="1.1" xmlns="http://www.w3.org/2000/svg">
<g id="#cf5154ff">
<path fill="#cf5154" opacity="1.00" d=" M 0.00 0.00 L 25.00 0.00 L 25.00 25.00 L 0.00 25.00 L 0.00 0.00 M 8.19 11.32 C 8.20 11.91 8.20 13.09 8.21 13.68 C 11.43 13.76 14.66 13.77 17.88 13.68 C 17.89 13.09 17.89 11.91 17.89 11.32 C 14.66 11.23 11.43 11.23 8.19 11.32 Z" />
</g>
<g id="#fefaf9ff">
<path fill="#fefaf9" opacity="1.00" d=" M 8.19 11.32 C 11.43 11.23 14.66 11.23 17.89 11.32 C 17.89 11.91 17.89 13.09 17.88 13.68 C 14.66 13.77 11.43 13.76 8.21 13.68 C 8.20 13.09 8.20 11.91 8.19 11.32 Z" />
</g>
</svg>
