{
  "accessors": [
    {
      "bufferView": 0,
      "componentType": 5125,
      "count": 60,
      "type": "SCALAR"
    },
    {
      "bufferView": 1,
      "componentType": 5126,
      "count": 28,
      "max": [
        0.05532577148012163,
        -0.013242310769012972,
        0.0026968739965800236
      ],
      "min": [
        0.04819979510731859,
        -0.04112646920350446,
        -0.0026968808262687106
      ],
      "type": "VEC3"
    },
    {
      "bufferView": 2,
      "componentType": 5126,
      "count": 28,
      "max": [
        0.9999999999999635,
        0.9999999999999635,
        1.0
      ],
      "min": [
        -0.9999999999999635,
        -0.9999999999999635,
        -1.0
      ],
      "type": "VEC3"
    },
    {
      "bufferView": 3,
      "componentType": 5126,
      "count": 28,
      "max": [
        1.0,
        0.9191994883643213
      ],
      "min": [
        0.0,
        0.0
      ],
      "type": "VEC2"
    },
    {
      "bufferView": 4,
      "componentType": 5125,
      "count": 168,
      "type": "SCALAR"
    },
    {
      "bufferView": 5,
      "componentType": 5126,
      "count": 70,
      "max": [
        0.07569166071912586,
        0.01600652704363191,
        0.0026968739965800236
      ],
      "min": [
        0.06926777918997168,
        0.0037663493740321685,
        -0.0026968808262687106
      ],
      "type": "VEC3"
    },
    {
      "bufferView": 6,
      "componentType": 5126,
      "count": 70,
      "max": [
        0.9999999999989604,
        0.9999999999989604,
        1.0
      ],
      "min": [
        -0.9999999999989604,
        -0.9999999999989604,
        -1.0
      ],
      "type": "VEC3"
    },
    {
      "bufferView": 7,
      "componentType": 5126,
      "count": 70,
      "max": [
        0.9841628678647444,
        1.0
      ],
      "min": [
        0.0,
        0.0
      ],
      "type": "VEC2"
    },
    {
      "bufferView": 8,
      "componentType": 5125,
      "count": 2436,
      "type": "SCALAR"
    },
    {
      "bufferView": 9,
      "componentType": 5126,
      "count": 696,
      "max": [
        0.04482650075583389,
        -0.01269077537885302,
        0.002696873996580022
      ],
      "min": [
        0.028453574933586634,
        -0.04112646932087011,
        -0.0026968808262687106
      ],
      "type": "VEC3"
    },
    {
      "bufferView": 10,
      "componentType": 5126,
      "count": 696,
      "max": [
        0.9999999999998522,
        0.9999999999998522,
        1.0
      ],
      "min": [
        -0.9999999999998522,
        -0.9999999999998522,
        -1.0
      ],
      "type": "VEC3"
    },
    {
      "bufferView": 11,
      "componentType": 5126,
      "count": 696,
      "max": [
        0.9505539549878096,
        1.0
      ],
      "min": [
        0.0,
        0.0
      ],
      "type": "VEC2"
    },
    {
      "bufferView": 12,
      "componentType": 5125,
      "count": 5568,
      "type": "SCALAR"
    },
    {
      "bufferView": 13,
      "componentType": 5126,
      "count": 1570,
      "max": [
        0.08438161882007217,
        0.016158282011960068,
        0.002696873996580026
      ],
      "min": [
        0.07648901089700216,
        0.0034783558106255275,
        -0.0026968808262687106
      ],
      "type": "VEC3"
    },
    {
      "bufferView": 14,
      "componentType": 5126,
      "count": 1570,
      "max": [
        0.9999999999966257,
        0.9999999999966257,
        1.0
      ],
      "min": [
        -0.9999999999956364,
        -0.9999999641463759,
        -1.0
      ],
      "type": "VEC3"
    },
    {
      "bufferView": 15,
      "componentType": 5126,
      "count": 1570,
      "max": [
        0.9739809949165515,
        1.0
      ],
      "min": [
        0.0,
        0.0
      ],
      "type": "VEC2"
    },
    {
      "bufferView": 16,
      "componentType": 5125,
      "count": 7530,
      "type": "SCALAR"
    },
    {
      "bufferView": 17,
      "componentType": 5126,
      "count": 2109,
      "max": [
        -0.025856827244622238,
        -0.011495912625055976,
        0.0026968739965800236
      ],
      "min": [
        -0.05215007853038822,
        -0.040640357242276326,
        -0.0026968808262687106
      ],
      "type": "VEC3"
    },
    {
      "bufferView": 18,
      "componentType": 5126,
      "count": 2109,
      "max": [
        0.9999987489128094,
        0.9999980917281683,
        1.0
      ],
      "min": [
        -0.999999999522408,
        -0.9999980999293613,
        -1.0
      ],
      "type": "VEC3"
    },
    {
      "bufferView": 19,
      "componentType": 5126,
      "count": 2109,
      "max": [
        1.0,
        0.958579441128316
      ],
      "min": [
        0.0,
        0.0
      ],
      "type": "VEC2"
    },
    {
      "bufferView": 20,
      "componentType": 5125,
      "count": 3570,
      "type": "SCALAR"
    },
    {
      "bufferView": 21,
      "componentType": 5126,
      "count": 1007,
      "max": [
        0.0982675046299386,
        0.04175663913218901,
        0.0026968739965800236
      ],
      "min": [
        0.0484123742965511,
        -0.009828989814518324,
        -0.0026968808262687106
      ],
      "type": "VEC3"
    },
    {
      "bufferView": 22,
      "componentType": 5126,
      "count": 1007,
      "max": [
        0.9999999999999719,
        0.9999999999999719,
        1.0
      ],
      "min": [
        -0.9999999999999719,
        -0.9999999999999719,
        -1.0
      ],
      "type": "VEC3"
    },
    {
      "bufferView": 23,
      "componentType": 5126,
      "count": 1007,
      "max": [
        1.0,
        0.9494165806663551
      ],
      "min": [
        0.0,
        0.0
      ],
      "type": "VEC2"
    },
    {
      "bufferView": 24,
      "componentType": 5125,
      "count": 2634,
      "type": "SCALAR"
    },
    {
      "bufferView": 25,
      "componentType": 5126,
      "count": 761,
      "max": [
        -0.006481824598212532,
        -0.006738958271807455,
        0.0026968739965800236
      ],
      "min": [
        -0.023792174642675468,
        -0.041359525411541115,
        -0.0026968808262687106
      ],
      "type": "VEC3"
    },
    {
      "bufferView": 26,
      "componentType": 5126,
      "count": 761,
      "max": [
        0.999999999999924,
        0.9999999999999241,
        1.0
      ],
      "min": [
        -0.999999999999924,
        -0.9999999999999241,
        -1.0
      ],
      "type": "VEC3"
    },
    {
      "bufferView": 27,
      "componentType": 5126,
      "count": 761,
      "max": [
        1.0,
        0.9200864388673066
      ],
      "min": [
        0.0,
        0.0
      ],
      "type": "VEC2"
    },
    {
      "bufferView": 28,
      "componentType": 5125,
      "count": 2310,
      "type": "SCALAR"
    },
    {
      "bufferView": 29,
      "componentType": 5126,
      "count": 669,
      "max": [
        -0.08197646839962047,
        -0.0003740731198691727,
        0.0026968739965800253
      ],
      "min": [
        -0.09826750462993852,
        -0.04001020889497445,
        -0.0026968808262687106
      ],
      "type": "VEC3"
    },
    {
      "bufferView": 30,
      "componentType": 5126,
      "count": 669,
      "max": [
        0.9999999999999656,
        0.9999999999999656,
        1.0
      ],
      "min": [
        -0.9999999999999656,
        -0.9999999999999656,
        -1.0
      ],
      "type": "VEC3"
    },
    {
      "bufferView": 31,
      "componentType": 5126,
      "count": 669,
      "max": [
        1.0,
        0.9114712808708283
      ],
      "min": [
        0.0,
        0.0
      ],
      "type": "VEC2"
    },
    {
      "bufferView": 32,
      "componentType": 5125,
      "count": 6336,
      "type": "SCALAR"
    },
    {
      "bufferView": 33,
      "componentType": 5126,
      "count": 1772,
      "max": [
        0.024264157517949497,
        -0.012612150444425485,
        0.002696873996580026
      ],
      "min": [
        -0.004501295782223164,
        -0.04175663913218902,
        -0.0026968808262687106
      ],
      "type": "VEC3"
    },
    {
      "bufferView": 34,
      "componentType": 5126,
      "count": 1772,
      "max": [
        0.9999999999945474,
        0.999999999993171,
        1.0
      ],
      "min": [
        -0.9999999857821794,
        -0.999999999972467,
        -1.0
      ],
      "type": "VEC3"
    },
    {
      "bufferView": 35,
      "componentType": 5126,
      "count": 1772,
      "max": [
        1.0,
        0.901140070736576
      ],
      "min": [
        0.0,
        0.0
      ],
      "type": "VEC2"
    },
    {
      "bufferView": 36,
      "componentType": 5125,
      "count": 10746,
      "type": "SCALAR"
    },
    {
      "bufferView": 37,
      "componentType": 5126,
      "count": 3007,
      "max": [
        -0.055281474375647316,
        -0.011495920330570952,
        0.0026968739965800236
      ],
      "min": [
        -0.0801054301681802,
        -0.040640355764625324,
        -0.0026968808262687106
      ],
      "type": "VEC3"
    },
    {
      "bufferView": 38,
      "componentType": 5126,
      "count": 3007,
      "max": [
        0.9999999982964755,
        0.9999999624444018,
        1.0
      ],
      "min": [
        -0.9999999987341216,
        -0.9999999999996952,
        -1.0
      ],
      "type": "VEC3"
    },
    {
      "bufferView": 39,
      "componentType": 5126,
      "count": 3007,
      "max": [
        0.9978493374967989,
        1.0
      ],
      "min": [
        0.0,
        0.0
      ],
      "type": "VEC2"
    },
    {
      "bufferView": 40,
      "componentType": 5125,
      "count": 10746,
      "type": "SCALAR"
    },
    {
      "bufferView": 41,
      "componentType": 5126,
      "count": 3007,
      "max": [
        0.0856114724370528,
        -0.012612140712497166,
        0.0026968808262687106
      ],
      "min": [
        0.06078751124164261,
        -0.04175660125976802,
        -0.0026968808262687106
      ],
      "type": "VEC3"
    },
    {
      "bufferView": 42,
      "componentType": 5126,
      "count": 3007,
      "max": [
        0.9999999984901704,
        0.9999999615016683,
        1.0
      ],
      "min": [
        -0.999999998556271,
        -0.9999999999965195,
        -1.0
      ],
      "type": "VEC3"
    },
    {
      "bufferView": 43,
      "componentType": 5126,
      "count": 3007,
      "max": [
        0.9978493374967989,
        1.0
      ],
      "min": [
        0.0,
        0.0
      ],
      "type": "VEC2"
    }
  ],
  "asset": {
    "generator": "Adobe Illustrator",
    "version": "2.0"
  },
  "bufferViews": [
    {
      "buffer": 0,
      "byteLength": 240,
      "target": 34963
    },
    {
      "buffer": 0,
      "byteLength": 336,
      "byteOffset": 240,
      "target": 34962
    },
    {
      "buffer": 0,
      "byteLength": 336,
      "byteOffset": 576,
      "target": 34962
    },
    {
      "buffer": 0,
      "byteLength": 224,
      "byteOffset": 912,
      "target": 34962
    },
    {
      "buffer": 0,
      "byteLength": 672,
      "byteOffset": 1136,
      "target": 34963
    },
    {
      "buffer": 0,
      "byteLength": 840,
      "byteOffset": 1808,
      "target": 34962
    },
    {
      "buffer": 0,
      "byteLength": 840,
      "byteOffset": 2648,
      "target": 34962
    },
    {
      "buffer": 0,
      "byteLength": 560,
      "byteOffset": 3488,
      "target": 34962
    },
    {
      "buffer": 0,
      "byteLength": 9744,
      "byteOffset": 4048,
      "target": 34963
    },
    {
      "buffer": 0,
      "byteLength": 8352,
      "byteOffset": 13792,
      "target": 34962
    },
    {
      "buffer": 0,
      "byteLength": 8352,
      "byteOffset": 22144,
      "target": 34962
    },
    {
      "buffer": 0,
      "byteLength": 5568,
      "byteOffset": 30496,
      "target": 34962
    },
    {
      "buffer": 0,
      "byteLength": 22272,
      "byteOffset": 36064,
      "target": 34963
    },
    {
      "buffer": 0,
      "byteLength": 18840,
      "byteOffset": 58336,
      "target": 34962
    },
    {
      "buffer": 0,
      "byteLength": 18840,
      "byteOffset": 77176,
      "target": 34962
    },
    {
      "buffer": 0,
      "byteLength": 12560,
      "byteOffset": 96016,
      "target": 34962
    },
    {
      "buffer": 0,
      "byteLength": 30120,
      "byteOffset": 108576,
      "target": 34963
    },
    {
      "buffer": 0,
      "byteLength": 25308,
      "byteOffset": 138696,
      "target": 34962
    },
    {
      "buffer": 0,
      "byteLength": 25308,
      "byteOffset": 164004,
      "target": 34962
    },
    {
      "buffer": 0,
      "byteLength": 16872,
      "byteOffset": 189312,
      "target": 34962
    },
    {
      "buffer": 0,
      "byteLength": 14280,
      "byteOffset": 206184,
      "target": 34963
    },
    {
      "buffer": 0,
      "byteLength": 12084,
      "byteOffset": 220464,
      "target": 34962
    },
    {
      "buffer": 0,
      "byteLength": 12084,
      "byteOffset": 232548,
      "target": 34962
    },
    {
      "buffer": 0,
      "byteLength": 8056,
      "byteOffset": 244632,
      "target": 34962
    },
    {
      "buffer": 0,
      "byteLength": 10536,
      "byteOffset": 252688,
      "target": 34963
    },
    {
      "buffer": 0,
      "byteLength": 9132,
      "byteOffset": 263224,
      "target": 34962
    },
    {
      "buffer": 0,
      "byteLength": 9132,
      "byteOffset": 272356,
      "target": 34962
    },
    {
      "buffer": 0,
      "byteLength": 6088,
      "byteOffset": 281488,
      "target": 34962
    },
    {
      "buffer": 0,
      "byteLength": 9240,
      "byteOffset": 287576,
      "target": 34963
    },
    {
      "buffer": 0,
      "byteLength": 8028,
      "byteOffset": 296816,
      "target": 34962
    },
    {
      "buffer": 0,
      "byteLength": 8028,
      "byteOffset": 304844,
      "target": 34962
    },
    {
      "buffer": 0,
      "byteLength": 5352,
      "byteOffset": 312872,
      "target": 34962
    },
    {
      "buffer": 0,
      "byteLength": 25344,
      "byteOffset": 318224,
      "target": 34963
    },
    {
      "buffer": 0,
      "byteLength": 21264,
      "byteOffset": 343568,
      "target": 34962
    },
    {
      "buffer": 0,
      "byteLength": 21264,
      "byteOffset": 364832,
      "target": 34962
    },
    {
      "buffer": 0,
      "byteLength": 14176,
      "byteOffset": 386096,
      "target": 34962
    },
    {
      "buffer": 0,
      "byteLength": 42984,
      "byteOffset": 400272,
      "target": 34963
    },
    {
      "buffer": 0,
      "byteLength": 36084,
      "byteOffset": 443256,
      "target": 34962
    },
    {
      "buffer": 0,
      "byteLength": 36084,
      "byteOffset": 479340,
      "target": 34962
    },
    {
      "buffer": 0,
      "byteLength": 24056,
      "byteOffset": 515424,
      "target": 34962
    },
    {
      "buffer": 0,
      "byteLength": 42984,
      "byteOffset": 539480,
      "target": 34963
    },
    {
      "buffer": 0,
      "byteLength": 36084,
      "byteOffset": 582464,
      "target": 34962
    },
    {
      "buffer": 0,
      "byteLength": 36084,
      "byteOffset": 618548,
      "target": 34962
    },
    {
      "buffer": 0,
      "byteLength": 24056,
      "byteOffset": 654632,
      "target": 34962
    }
  ],
  "buffers": [
    {
      "byteLength": 678688,
      "uri": "data:application/octet-stream;base64,"
    }
  ],
  "materials": [
    {
      "doubleSided": true,
      "pbrMetallicRoughness": {
        "baseColorFactor": [
          0.91796875,
          0.3359375,
          0.16015625,
          1.0
        ],
        "metallicFactor": 0.0,
        "roughnessFactor": 0.4000000059604645
      }
    },
    {
      "doubleSided": true,
      "pbrMetallicRoughness": {
        "baseColorFactor": [
          0.91796875,
          0.3359375,
          0.16015625,
          1.0
        ],
        "metallicFactor": 0.0,
        "roughnessFactor": 0.4000000059604645
      }
    },
    {
      "doubleSided": true,
      "pbrMetallicRoughness": {
        "baseColorFactor": [
          0.91796875,
          0.3359375,
          0.16015625,
          1.0
        ],
        "metallicFactor": 0.0,
        "roughnessFactor": 0.4000000059604645
      }
    },
    {
      "doubleSided": true,
      "pbrMetallicRoughness": {
        "baseColorFactor": [
          0.91796875,
          0.3359375,
          0.16015625,
          1.0
        ],
        "metallicFactor": 0.0,
        "roughnessFactor": 0.4000000059604645
      }
    },
    {
      "doubleSided": true,
      "pbrMetallicRoughness": {
        "baseColorFactor": [
          0.91796875,
          0.3359375,
          0.16015625,
          1.0
        ],
        "metallicFactor": 0.0,
        "roughnessFactor": 0.4000000059604645
      }
    },
    {
      "doubleSided": true,
      "pbrMetallicRoughness": {
        "baseColorFactor": [
          0.91796875,
          0.3359375,
          0.16015625,
          1.0
        ],
        "metallicFactor": 0.0,
        "roughnessFactor": 0.4000000059604645
      }
    },
    {
      "doubleSided": true,
      "pbrMetallicRoughness": {
        "baseColorFactor": [
          0.91796875,
          0.3359375,
          0.16015625,
          1.0
        ],
        "metallicFactor": 0.0,
        "roughnessFactor": 0.4000000059604645
      }
    },
    {
      "doubleSided": true,
      "pbrMetallicRoughness": {
        "baseColorFactor": [
          0.91796875,
          0.3359375,
          0.16015625,
          1.0
        ],
        "metallicFactor": 0.0,
        "roughnessFactor": 0.4000000059604645
      }
    },
    {
      "doubleSided": true,
      "pbrMetallicRoughness": {
        "baseColorFactor": [
          0.91796875,
          0.3359375,
          0.16015625,
          1.0
        ],
        "metallicFactor": 0.0,
        "roughnessFactor": 0.4000000059604645
      }
    },
    {
      "doubleSided": true,
      "pbrMetallicRoughness": {
        "baseColorFactor": [
          0.91796875,
          0.3359375,
          0.16015625,
          1.0
        ],
        "metallicFactor": 0.0,
        "roughnessFactor": 0.4000000059604645
      }
    },
    {
      "doubleSided": true,
      "pbrMetallicRoughness": {
        "baseColorFactor": [
          0.91796875,
          0.3359375,
          0.16015625,
          1.0
        ],
        "metallicFactor": 0.0,
        "roughnessFactor": 0.4000000059604645
      }
    }
  ],
  "meshes": [
    {
      "primitives": [
        {
          "attributes": {
            "NORMAL": 2,
            "POSITION": 1,
            "TEXCOORD_0": 3
          },
          "indices": 0,
          "material": 0,
          "mode": 4
        }
      ]
    },
    {
      "primitives": [
        {
          "attributes": {
            "NORMAL": 6,
            "POSITION": 5,
            "TEXCOORD_0": 7
          },
          "indices": 4,
          "material": 1,
          "mode": 4
        }
      ]
    },
    {
      "primitives": [
        {
          "attributes": {
            "NORMAL": 10,
            "POSITION": 9,
            "TEXCOORD_0": 11
          },
          "indices": 8,
          "material": 2,
          "mode": 4
        }
      ]
    },
    {
      "primitives": [
        {
          "attributes": {
            "NORMAL": 14,
            "POSITION": 13,
            "TEXCOORD_0": 15
          },
          "indices": 12,
          "material": 3,
          "mode": 4
        }
      ]
    },
    {
      "primitives": [
        {
          "attributes": {
            "NORMAL": 18,
            "POSITION": 17,
            "TEXCOORD_0": 19
          },
          "indices": 16,
          "material": 4,
          "mode": 4
        }
      ]
    },
    {
      "primitives": [
        {
          "attributes": {
            "NORMAL": 22,
            "POSITION": 21,
            "TEXCOORD_0": 23
          },
          "indices": 20,
          "material": 5,
          "mode": 4
        }
      ]
    },
    {
      "primitives": [
        {
          "attributes": {
            "NORMAL": 26,
            "POSITION": 25,
            "TEXCOORD_0": 27
          },
          "indices": 24,
          "material": 6,
          "mode": 4
        }
      ]
    },
    {
      "primitives": [
        {
          "attributes": {
            "NORMAL": 30,
            "POSITION": 29,
            "TEXCOORD_0": 31
          },
          "indices": 28,
          "material": 7,
          "mode": 4
        }
      ]
    },
    {
      "primitives": [
        {
          "attributes": {
            "NORMAL": 34,
            "POSITION": 33,
            "TEXCOORD_0": 35
          },
          "indices": 32,
          "material": 8,
          "mode": 4
        }
      ]
    },
    {
      "primitives": [
        {
          "attributes": {
            "NORMAL": 38,
            "POSITION": 37,
            "TEXCOORD_0": 39
          },
          "indices": 36,
          "material": 9,
          "mode": 4
        }
      ]
    },
    {
      "primitives": [
        {
          "attributes": {
            "NORMAL": 42,
            "POSITION": 41,
            "TEXCOORD_0": 43
          },
          "indices": 40,
          "material": 10,
          "mode": 4
        }
      ]
    }
  ],
  "nodes": [
    {
      "mesh": 0
    },
    {
      "mesh": 1
    },
    {
      "mesh": 2
    },
    {
      "mesh": 3
    },
    {
      "mesh": 4
    },
    {
      "mesh": 5
    },
    {
      "mesh": 6
    },
    {
      "mesh": 7
    },
    {
      "mesh": 8
    },
    {
      "mesh": 9
    },
    {
      "mesh": 10
    }
  ],
  "scenes": [
    {
      "nodes": [
        0,
        1,
        2,
        3,
        4,
        5,
        6,
        7,
        8,
        9,
        10
      ]
    }
  ]
}
