{
  "accessors": [
    {
      "bufferView": 0,
      "componentType": 5125,
      "count": 60,
      "type": "SCALAR"
    },
    {
      "bufferView": 1,
      "componentType": 5126,
      "count": 28,
      "max": [
        0.05532577396998875,
        -0.01324230878999777,
        0.002562033540853147
      ],
      "min": [
        0.04819979759718576,
        -0.04112646722448926,
        -0.0025620335408531496
      ],
      "type": "VEC3"
    },
    {
      "bufferView": 2,
      "componentType": 5126,
      "count": 28,
      "max": [
        0.9999999999999635,
        0.9999999999999635,
        1.0
      ],
      "min": [
        -0.9999999999999635,
        -0.9999999999999635,
        -1.0
      ],
      "type": "VEC3"
    },
    {
      "bufferView": 3,
      "componentType": 5126,
      "count": 28,
      "max": [
        1.0,
        0.9065112187506481
      ],
      "min": [
        0.0,
        0.0
      ],
      "type": "VEC2"
    },
    {
      "bufferView": 4,
      "componentType": 5125,
      "count": 168,
      "type": "SCALAR"
    },
    {
      "bufferView": 5,
      "componentType": 5126,
      "count": 70,
      "max": [
        0.07569166866252339,
        0.016006511678828134,
        0.0025620335408531487
      ],
      "min": [
        0.0692677869991409,
        0.00376635536499903,
        -0.0025620335408531496
      ],
      "type": "VEC3"
    },
    {
      "bufferView": 6,
      "componentType": 5126,
      "count": 70,
      "max": [
        0.9999999999996319,
        0.999999999999632,
        1.0
      ],
      "min": [
        -0.9999999999996319,
        -0.999999999999632,
        -1.0
      ],
      "type": "VEC3"
    },
    {
      "bufferView": 7,
      "componentType": 5126,
      "count": 70,
      "max": [
        0.9841628678647444,
        1.0
      ],
      "min": [
        0.0,
        0.0
      ],
      "type": "VEC2"
    },
    {
      "bufferView": 8,
      "componentType": 5125,
      "count": 2436,
      "type": "SCALAR"
    },
    {
      "bufferView": 9,
      "componentType": 5126,
      "count": 696,
      "max": [
        0.04482650271292818,
        -0.012690774361166557,
        0.0025620335408531496
      ],
      "min": [
        0.0284535782040595,
        -0.04112646747991067,
        -0.0025620335408531496
      ],
      "type": "VEC3"
    },
    {
      "bufferView": 10,
      "componentType": 5126,
      "count": 696,
      "max": [
        0.9999999999998663,
        0.9999999999998663,
        1.0
      ],
      "min": [
        -0.9999999999998663,
        -0.9999999999998663,
        -1.0
      ],
      "type": "VEC3"
    },
    {
      "bufferView": 11,
      "componentType": 5126,
      "count": 696,
      "max": [
        0.9505539549878096,
        1.0
      ],
      "min": [
        0.0,
        0.0
      ],
      "type": "VEC2"
    },
    {
      "bufferView": 12,
      "componentType": 5125,
      "count": 5568,
      "type": "SCALAR"
    },
    {
      "bufferView": 13,
      "componentType": 5126,
      "count": 1570,
      "max": [
        0.08438162260572632,
        0.01615828267821387,
        0.002562033540853148
      ],
      "min": [
        0.07648901142984668,
        0.003478352465272505,
        -0.0025620335408531496
      ],
      "type": "VEC3"
    },
    {
      "bufferView": 14,
      "componentType": 5126,
      "count": 1570,
      "max": [
        0.9999999999969615,
        0.9999999999969615,
        1.0
      ],
      "min": [
        -0.9999999999960195,
        -0.9999999641819067,
        -1.0
      ],
      "type": "VEC3"
    },
    {
      "bufferView": 15,
      "componentType": 5126,
      "count": 1570,
      "max": [
        0.9739809949165515,
        1.0
      ],
      "min": [
        0.0,
        0.0
      ],
      "type": "VEC2"
    },
    {
      "bufferView": 16,
      "componentType": 5125,
      "count": 7530,
      "type": "SCALAR"
    },
    {
      "bufferView": 17,
      "componentType": 5126,
      "count": 2109,
      "max": [
        -0.025856815515701403,
        -0.01149590836754738,
        0.002562033540853148
      ],
      "min": [
        -0.052150085883570285,
        -0.04064037424756761,
        -0.0025620335408531496
      ],
      "type": "VEC3"
    },
    {
      "bufferView": 18,
      "componentType": 5126,
      "count": 2109,
      "max": [
        0.9999987488761615,
        0.9999980917734281,
        1.0
      ],
      "min": [
        -0.9999999995216914,
        -0.9999980999745237,
        -1.0
      ],
      "type": "VEC3"
    },
    {
      "bufferView": 19,
      "componentType": 5126,
      "count": 2109,
      "max": [
        1.0,
        0.9387121508735233
      ],
      "min": [
        0.0,
        0.0
      ],
      "type": "VEC2"
    },
    {
      "bufferView": 20,
      "componentType": 5125,
      "count": 3570,
      "type": "SCALAR"
    },
    {
      "bufferView": 21,
      "componentType": 5126,
      "count": 1007,
      "max": [
        0.09826750695556788,
        0.04175663969949131,
        0.0025620335408531487
      ],
      "min": [
        0.048412377770163245,
        -0.009828989006184452,
        -0.0025620335408531496
      ],
      "type": "VEC3"
    },
    {
      "bufferView": 22,
      "componentType": 5126,
      "count": 1007,
      "max": [
        0.9999999999999675,
        0.9999999999999675,
        1.0
      ],
      "min": [
        -0.9999999999999675,
        -0.9999999999999675,
        -1.0
      ],
      "type": "VEC3"
    },
    {
      "bufferView": 23,
      "componentType": 5126,
      "count": 1007,
      "max": [
        1.0,
        0.9981271532821623
      ],
      "min": [
        0.0,
        0.0
      ],
      "type": "VEC2"
    },
    {
      "bufferView": 24,
      "componentType": 5125,
      "count": 2634,
      "type": "SCALAR"
    },
    {
      "bufferView": 25,
      "componentType": 5126,
      "count": 761,
      "max": [
        -0.006481823690928479,
        -0.006738962672923787,
        0.002562033540853148
      ],
      "min": [
        -0.023792171027843173,
        -0.04135952353039041,
        -0.0025620335408531496
      ],
      "type": "VEC3"
    },
    {
      "bufferView": 26,
      "componentType": 5126,
      "count": 761,
      "max": [
        0.9999999999999039,
        0.9999999999999039,
        1.0
      ],
      "min": [
        -0.9999999999999039,
        -0.9999999999999039,
        -1.0
      ],
      "type": "VEC3"
    },
    {
      "bufferView": 27,
      "componentType": 5126,
      "count": 761,
      "max": [
        1.0,
        0.99111031148195
      ],
      "min": [
        0.0,
        0.0
      ],
      "type": "VEC2"
    },
    {
      "bufferView": 28,
      "componentType": 5125,
      "count": 2310,
      "type": "SCALAR"
    },
    {
      "bufferView": 29,
      "componentType": 5126,
      "count": 669,
      "max": [
        -0.08197645997395756,
        -0.0003740742588285717,
        0.002562033540853148
      ],
      "min": [
        -0.09826750695556791,
        -0.04001023098306339,
        -0.0025620335408531496
      ],
      "type": "VEC3"
    },
    {
      "bufferView": 30,
      "componentType": 5126,
      "count": 669,
      "max": [
        0.9999999999999256,
        0.9999999999999256,
        1.0
      ],
      "min": [
        -0.9999999999999256,
        -0.9999999999999256,
        -1.0
      ],
      "type": "VEC3"
    },
    {
      "bufferView": 31,
      "componentType": 5126,
      "count": 669,
      "max": [
        1.0,
        0.901873014603808
      ],
      "min": [
        0.0,
        0.0
      ],
      "type": "VEC2"
    },
    {
      "bufferView": 32,
      "componentType": 5125,
      "count": 6336,
      "type": "SCALAR"
    },
    {
      "bufferView": 33,
      "componentType": 5126,
      "count": 1772,
      "max": [
        0.0242641575829341,
        -0.01261215569549129,
        0.002562033540853147
      ],
      "min": [
        -0.004501291226767651,
        -0.04175663969949134,
        -0.0025620335408531496
      ],
      "type": "VEC3"
    },
    {
      "bufferView": 34,
      "componentType": 5126,
      "count": 1772,
      "max": [
        0.9999999999956738,
        0.9999999999917726,
        1.0
      ],
      "min": [
        -0.9999999857212692,
        -0.9999999999750796,
        -1.0
      ],
      "type": "VEC3"
    },
    {
      "bufferView": 35,
      "componentType": 5126,
      "count": 1772,
      "max": [
        1.0,
        0.9772292907102849
      ],
      "min": [
        0.0,
        0.0
      ],
      "type": "VEC2"
    },
    {
      "bufferView": 36,
      "componentType": 5125,
      "count": 10746,
      "type": "SCALAR"
    },
    {
      "bufferView": 37,
      "componentType": 5126,
      "count": 3007,
      "max": [
        0.08561147968839258,
        -0.0126121468019052,
        0.002562033540853148
      ],
      "min": [
        0.0607875191595377,
        -0.041756603540663184,
        -0.0025620335408531496
      ],
      "type": "VEC3"
    },
    {
      "bufferView": 38,
      "componentType": 5126,
      "count": 3007,
      "max": [
        0.9999999984597348,
        0.9999999616544384,
        1.0
      ],
      "min": [
        -0.9999999985857329,
        -0.9999999999978217,
        -1.0
      ],
      "type": "VEC3"
    },
    {
      "bufferView": 39,
      "componentType": 5126,
      "count": 3007,
      "max": [
        1.0,
        0.9813848472956525
      ],
      "min": [
        0.0,
        0.0
      ],
      "type": "VEC2"
    },
    {
      "bufferView": 40,
      "componentType": 5125,
      "count": 10746,
      "type": "SCALAR"
    },
    {
      "bufferView": 41,
      "componentType": 5126,
      "count": 3007,
      "max": [
        -0.055281487190476264,
        -0.011495916831334385,
        0.0025620312828572803
      ],
      "min": [
        -0.08010544512560486,
        -0.04064036450715547,
        -0.0025620335408531496
      ],
      "type": "VEC3"
    },
    {
      "bufferView": 42,
      "componentType": 5126,
      "count": 3007,
      "max": [
        0.9999999983983037,
        0.9999999619573537,
        1.0
      ],
      "min": [
        -0.9999999986434217,
        -0.9999999999995087,
        -1.0
      ],
      "type": "VEC3"
    },
    {
      "bufferView": 43,
      "componentType": 5126,
      "count": 3007,
      "max": [
        1.0,
        0.9813848472956525
      ],
      "min": [
        0.0,
        0.0
      ],
      "type": "VEC2"
    }
  ],
  "asset": {
    "generator": "Adobe Illustrator",
    "version": "2.0"
  },
  "bufferViews": [
    {
      "buffer": 0,
      "byteLength": 240,
      "target": 34963
    },
    {
      "buffer": 0,
      "byteLength": 336,
      "byteOffset": 240,
      "target": 34962
    },
    {
      "buffer": 0,
      "byteLength": 336,
      "byteOffset": 576,
      "target": 34962
    },
    {
      "buffer": 0,
      "byteLength": 224,
      "byteOffset": 912,
      "target": 34962
    },
    {
      "buffer": 0,
      "byteLength": 672,
      "byteOffset": 1136,
      "target": 34963
    },
    {
      "buffer": 0,
      "byteLength": 840,
      "byteOffset": 1808,
      "target": 34962
    },
    {
      "buffer": 0,
      "byteLength": 840,
      "byteOffset": 2648,
      "target": 34962
    },
    {
      "buffer": 0,
      "byteLength": 560,
      "byteOffset": 3488,
      "target": 34962
    },
    {
      "buffer": 0,
      "byteLength": 9744,
      "byteOffset": 4048,
      "target": 34963
    },
    {
      "buffer": 0,
      "byteLength": 8352,
      "byteOffset": 13792,
      "target": 34962
    },
    {
      "buffer": 0,
      "byteLength": 8352,
      "byteOffset": 22144,
      "target": 34962
    },
    {
      "buffer": 0,
      "byteLength": 5568,
      "byteOffset": 30496,
      "target": 34962
    },
    {
      "buffer": 0,
      "byteLength": 22272,
      "byteOffset": 36064,
      "target": 34963
    },
    {
      "buffer": 0,
      "byteLength": 18840,
      "byteOffset": 58336,
      "target": 34962
    },
    {
      "buffer": 0,
      "byteLength": 18840,
      "byteOffset": 77176,
      "target": 34962
    },
    {
      "buffer": 0,
      "byteLength": 12560,
      "byteOffset": 96016,
      "target": 34962
    },
    {
      "buffer": 0,
      "byteLength": 30120,
      "byteOffset": 108576,
      "target": 34963
    },
    {
      "buffer": 0,
      "byteLength": 25308,
      "byteOffset": 138696,
      "target": 34962
    },
    {
      "buffer": 0,
      "byteLength": 25308,
      "byteOffset": 164004,
      "target": 34962
    },
    {
      "buffer": 0,
      "byteLength": 16872,
      "byteOffset": 189312,
      "target": 34962
    },
    {
      "buffer": 0,
      "byteLength": 14280,
      "byteOffset": 206184,
      "target": 34963
    },
    {
      "buffer": 0,
      "byteLength": 12084,
      "byteOffset": 220464,
      "target": 34962
    },
    {
      "buffer": 0,
      "byteLength": 12084,
      "byteOffset": 232548,
      "target": 34962
    },
    {
      "buffer": 0,
      "byteLength": 8056,
      "byteOffset": 244632,
      "target": 34962
    },
    {
      "buffer": 0,
      "byteLength": 10536,
      "byteOffset": 252688,
      "target": 34963
    },
    {
      "buffer": 0,
      "byteLength": 9132,
      "byteOffset": 263224,
      "target": 34962
    },
    {
      "buffer": 0,
      "byteLength": 9132,
      "byteOffset": 272356,
      "target": 34962
    },
    {
      "buffer": 0,
      "byteLength": 6088,
      "byteOffset": 281488,
      "target": 34962
    },
    {
      "buffer": 0,
      "byteLength": 9240,
      "byteOffset": 287576,
      "target": 34963
    },
    {
      "buffer": 0,
      "byteLength": 8028,
      "byteOffset": 296816,
      "target": 34962
    },
    {
      "buffer": 0,
      "byteLength": 8028,
      "byteOffset": 304844,
      "target": 34962
    },
    {
      "buffer": 0,
      "byteLength": 5352,
      "byteOffset": 312872,
      "target": 34962
    },
    {
      "buffer": 0,
      "byteLength": 25344,
      "byteOffset": 318224,
      "target": 34963
    },
    {
      "buffer": 0,
      "byteLength": 21264,
      "byteOffset": 343568,
      "target": 34962
    },
    {
      "buffer": 0,
      "byteLength": 21264,
      "byteOffset": 364832,
      "target": 34962
    },
    {
      "buffer": 0,
      "byteLength": 14176,
      "byteOffset": 386096,
      "target": 34962
    },
    {
      "buffer": 0,
      "byteLength": 42984,
      "byteOffset": 400272,
      "target": 34963
    },
    {
      "buffer": 0,
      "byteLength": 36084,
      "byteOffset": 443256,
      "target": 34962
    },
    {
      "buffer": 0,
      "byteLength": 36084,
      "byteOffset": 479340,
      "target": 34962
    },
    {
      "buffer": 0,
      "byteLength": 24056,
      "byteOffset": 515424,
      "target": 34962
    },
    {
      "buffer": 0,
      "byteLength": 42984,
      "byteOffset": 539480,
      "target": 34963
    },
    {
      "buffer": 0,
      "byteLength": 36084,
      "byteOffset": 582464,
      "target": 34962
    },
    {
      "buffer": 0,
      "byteLength": 36084,
      "byteOffset": 618548,
      "target": 34962
    },
    {
      "buffer": 0,
      "byteLength": 24056,
      "byteOffset": 654632,
      "target": 34962
    }
  ],
  "buffers": [
    {
      "byteLength": 678688,
      "uri": "data:application/octet-stream;base64,"
    }
  ],
  "materials": [
    {
      "doubleSided": true,
      "pbrMetallicRoughness": {
        "baseColorFactor": [
          0.9999999403953552,
          0.9999999403953552,
          0.9999999403953552,
          1.0
        ],
        "metallicFactor": 0.0,
        "roughnessFactor": 0.4000000059604645
      }
    },
    {
      "doubleSided": true,
      "pbrMetallicRoughness": {
        "baseColorFactor": [
          0.9999999403953552,
          0.9999999403953552,
          0.9999999403953552,
          1.0
        ],
        "metallicFactor": 0.0,
        "roughnessFactor": 0.4000000059604645
      }
    },
    {
      "doubleSided": true,
      "pbrMetallicRoughness": {
        "baseColorFactor": [
          0.9999999403953552,
          0.9999999403953552,
          0.9999999403953552,
          1.0
        ],
        "metallicFactor": 0.0,
        "roughnessFactor": 0.4000000059604645
      }
    },
    {
      "doubleSided": true,
      "pbrMetallicRoughness": {
        "baseColorFactor": [
          0.9999999403953552,
          0.9999999403953552,
          0.9999999403953552,
          1.0
        ],
        "metallicFactor": 0.0,
        "roughnessFactor": 0.4000000059604645
      }
    },
    {
      "doubleSided": true,
      "pbrMetallicRoughness": {
        "baseColorFactor": [
          0.9999999403953552,
          0.9999999403953552,
          0.9999999403953552,
          1.0
        ],
        "metallicFactor": 0.0,
        "roughnessFactor": 0.4000000059604645
      }
    },
    {
      "doubleSided": true,
      "pbrMetallicRoughness": {
        "baseColorFactor": [
          0.9999999403953552,
          0.9999999403953552,
          0.9999999403953552,
          1.0
        ],
        "metallicFactor": 0.0,
        "roughnessFactor": 0.4000000059604645
      }
    },
    {
      "doubleSided": true,
      "pbrMetallicRoughness": {
        "baseColorFactor": [
          0.9999999403953552,
          0.9999999403953552,
          0.9999999403953552,
          1.0
        ],
        "metallicFactor": 0.0,
        "roughnessFactor": 0.4000000059604645
      }
    },
    {
      "doubleSided": true,
      "pbrMetallicRoughness": {
        "baseColorFactor": [
          0.9999999403953552,
          0.9999999403953552,
          0.9999999403953552,
          1.0
        ],
        "metallicFactor": 0.0,
        "roughnessFactor": 0.4000000059604645
      }
    },
    {
      "doubleSided": true,
      "pbrMetallicRoughness": {
        "baseColorFactor": [
          0.9999999403953552,
          0.9999999403953552,
          0.9999999403953552,
          1.0
        ],
        "metallicFactor": 0.0,
        "roughnessFactor": 0.4000000059604645
      }
    },
    {
      "doubleSided": true,
      "pbrMetallicRoughness": {
        "baseColorFactor": [
          0.9999999403953552,
          0.9999999403953552,
          0.9999999403953552,
          1.0
        ],
        "metallicFactor": 0.0,
        "roughnessFactor": 0.4000000059604645
      }
    },
    {
      "doubleSided": true,
      "pbrMetallicRoughness": {
        "baseColorFactor": [
          0.9999999403953552,
          0.9999999403953552,
          0.9999999403953552,
          1.0
        ],
        "metallicFactor": 0.0,
        "roughnessFactor": 0.4000000059604645
      }
    }
  ],
  "meshes": [
    {
      "primitives": [
        {
          "attributes": {
            "NORMAL": 2,
            "POSITION": 1,
            "TEXCOORD_0": 3
          },
          "indices": 0,
          "material": 0,
          "mode": 4
        }
      ]
    },
    {
      "primitives": [
        {
          "attributes": {
            "NORMAL": 6,
            "POSITION": 5,
            "TEXCOORD_0": 7
          },
          "indices": 4,
          "material": 1,
          "mode": 4
        }
      ]
    },
    {
      "primitives": [
        {
          "attributes": {
            "NORMAL": 10,
            "POSITION": 9,
            "TEXCOORD_0": 11
          },
          "indices": 8,
          "material": 2,
          "mode": 4
        }
      ]
    },
    {
      "primitives": [
        {
          "attributes": {
            "NORMAL": 14,
            "POSITION": 13,
            "TEXCOORD_0": 15
          },
          "indices": 12,
          "material": 3,
          "mode": 4
        }
      ]
    },
    {
      "primitives": [
        {
          "attributes": {
            "NORMAL": 18,
            "POSITION": 17,
            "TEXCOORD_0": 19
          },
          "indices": 16,
          "material": 4,
          "mode": 4
        }
      ]
    },
    {
      "primitives": [
        {
          "attributes": {
            "NORMAL": 22,
            "POSITION": 21,
            "TEXCOORD_0": 23
          },
          "indices": 20,
          "material": 5,
          "mode": 4
        }
      ]
    },
    {
      "primitives": [
        {
          "attributes": {
            "NORMAL": 26,
            "POSITION": 25,
            "TEXCOORD_0": 27
          },
          "indices": 24,
          "material": 6,
          "mode": 4
        }
      ]
    },
    {
      "primitives": [
        {
          "attributes": {
            "NORMAL": 30,
            "POSITION": 29,
            "TEXCOORD_0": 31
          },
          "indices": 28,
          "material": 7,
          "mode": 4
        }
      ]
    },
    {
      "primitives": [
        {
          "attributes": {
            "NORMAL": 34,
            "POSITION": 33,
            "TEXCOORD_0": 35
          },
          "indices": 32,
          "material": 8,
          "mode": 4
        }
      ]
    },
    {
      "primitives": [
        {
          "attributes": {
            "NORMAL": 38,
            "POSITION": 37,
            "TEXCOORD_0": 39
          },
          "indices": 36,
          "material": 9,
          "mode": 4
        }
      ]
    },
    {
      "primitives": [
        {
          "attributes": {
            "NORMAL": 42,
            "POSITION": 41,
            "TEXCOORD_0": 43
          },
          "indices": 40,
          "material": 10,
          "mode": 4
        }
      ]
    }
  ],
  "nodes": [
    {
      "mesh": 0
    },
    {
      "mesh": 1
    },
    {
      "mesh": 2
    },
    {
      "mesh": 3
    },
    {
      "mesh": 4
    },
    {
      "mesh": 5
    },
    {
      "mesh": 6
    },
    {
      "mesh": 7
    },
    {
      "mesh": 8
    },
    {
      "mesh": 9
    },
    {
      "mesh": 10
    }
  ],
  "scenes": [
    {
      "nodes": [
        0,
        1,
        2,
        3,
        4,
        5,
        6,
        7,
        8,
        9,
        10
      ]
    }
  ]
}
